# xmcd CD database file
#
# Track frame offsets:
#	192
#	13705
#	29735
#	46022
#	67452
#	81910
#	93660
#	107530
#	123002
#	138940
#	152280
#	166922
#	179917
#	192295
#	207920
#	221105
#	236000
#	251170
#	265477
#	275885
#
# Disc length: 3867 seconds
#
# Revision: 0
# Processed by: cddbd v1.5.1PL0 Copyright (c) Steve Scherf et al.
# Submitted via: CDex 1.51
#
DISCID=300f1914
DTITLE=Various Artist - The Jazz Singers - Vocals by great instrumentalists
DYEAR=1991
DGENRE=Jazz
TTITLE0=Louis Armstrong: Do you know what it means to miss New Orleans?
TTITLE1=Fats Waller: I'm gonna sit right down and write myself a letter
TTITLE2=Jack Teagarden: St James infermary
TTITLE3=Bunny Berigan: I can't get started
TTITLE4=Jelly Roll Morton: I thought I heard Buddy Bolden say
TTITLE5=Cootie Williams: Hot feet
TTITLE6=Earl Hines: I wish I could shimmy like my sister Kate
TTITLE7=Don Redman: Gee, baby, ain't I good to you
TTITLE8=Roy Eldridge: Shoe shine boy
TTITLE9=Teddy Bunn: If you see me comin'
TTITLE10=Lionel Hampton: It don't mean a thing
TTITLE11=Wingy Manone: When my sugar walks down the street
TTITLE12=George Brunies: Dinah
TTITLE13=Hot lips page: Take your shoes off, baby
TTITLE14=Henry "Red" Allen: Let me miss you
TTITLE15=Sy Oliver: Don't be a baby, baby
TTITLE16=Ray Nace: Just squeeze me
TTITLE17=Chalie Shavers: At the Fat Man's
TTITLE18=Dizzy Gillespie: I'm beeboppin', too
TTITLE19=Louis Armstrong: That's my home
EXTD=YEAR: 1991
EXTT0=
EXTT1=
EXTT2=
EXTT3=
EXTT4=
EXTT5=
EXTT6=
EXTT7=
EXTT8=
EXTT9=
EXTT10=
EXTT11=
EXTT12=
EXTT13=
EXTT14=
EXTT15=
EXTT16=
EXTT17=
EXTT18=
EXTT19=
PLAYORDER=
